<svg viewBox="0 0 1600 1600" xmlns="http://www.w3.org/2000/svg" xml:space="preserve" fill-rule="evenodd" clip-rule="evenodd" stroke-linejoin="round" stroke-miterlimit="2">
	<path d="M1600,160C1600,71.694 1528.31,0 1440,0L160,0C71.694,0 0,71.694 0,160L0,1440C0,1528.31 71.694,1600 160,1600L1440,1600C1528.31,1600 1600,1528.31 1600,1440L1600,160Z" fill="#3178c6"/>
	<path d="M0.094,0.152L0.273,0.152L0.273,0.105L0.156,0.105L0.156,-0.66L0.273,-0.66L0.273,-0.708L0.094,-0.708L0.094,0.152Z" fill="#fff" fill-rule="nonzero" transform="matrix(907.1181 0 0 737.4944 236.33 1322.115)"/>
	<path d="M0.021,-0.057C0.071,-0.016 0.146,0.012 0.211,0.012C0.344,0.012 0.415,-0.058 0.415,-0.148C0.415,-0.239 0.344,-0.274 0.281,-0.297C0.23,-0.316 0.184,-0.328 0.184,-0.36C0.184,-0.385 0.202,-0.399 0.24,-0.399C0.275,-0.399 0.309,-0.383 0.345,-0.357L0.411,-0.445C0.368,-0.477 0.312,-0.508 0.236,-0.508C0.121,-0.508 0.046,-0.445 0.046,-0.353C0.046,-0.271 0.117,-0.23 0.177,-0.207C0.228,-0.187 0.278,-0.172 0.278,-0.139C0.278,-0.113 0.259,-0.097 0.215,-0.097C0.173,-0.097 0.132,-0.115 0.087,-0.149L0.021,-0.057Z" fill="#fff" fill-rule="nonzero" transform="matrix(907.1181 0 0 737.4944 511.185 1322.115)"/>
	<path d="M0.065,-0L0.18,-0L0.192,-0.052L0.196,-0.052C0.235,-0.01 0.281,0.012 0.325,0.012C0.432,0.012 0.534,-0.086 0.534,-0.257C0.534,-0.409 0.459,-0.508 0.339,-0.508C0.293,-0.508 0.246,-0.487 0.208,-0.453L0.212,-0.529L0.212,-0.701L0.065,-0.701L0.065,-0ZM0.212,-0.14L0.212,-0.343C0.24,-0.374 0.267,-0.388 0.297,-0.388C0.356,-0.388 0.383,-0.343 0.383,-0.254C0.383,-0.152 0.342,-0.108 0.291,-0.108C0.266,-0.108 0.238,-0.116 0.212,-0.14Z" fill="#fff" fill-rule="nonzero" transform="matrix(774.3691 0 0 737.4944 867.673 1322.115)"/>
	<path d="M0.031,0.105L0.031,0.152L0.209,0.152L0.209,-0.708L0.031,-0.708L0.031,-0.66L0.147,-0.66L0.147,0.105L0.031,0.105Z" fill="#fff" fill-rule="nonzero" transform="matrix(774.3691 0 0 737.4944 1311.416 1322.115)"/>
</svg>
